<?xml version="1.0" encoding="utf-8"?>
<!-- Generator: Adobe Illustrator 26.0.0, SVG Export Plug-In . SVG Version: 6.00 Build 0)  -->
<svg version="1.1" id="图层_1" xmlns="http://www.w3.org/2000/svg" xmlns:xlink="http://www.w3.org/1999/xlink" x="0px" y="0px"
	 viewBox="0 0 50 50" style="enable-background:new 0 0 50 50;" xml:space="preserve">
<style type="text/css">
	.st0{fill:#FEFFFE;}
	.st1{fill:#FFFFFF;}
</style>
<g>
	<path class="st0" d="M25,6.2c10.4,0,18.8,8.4,18.8,18.8S35.4,43.8,25,43.8S6.2,35.4,6.2,25S14.6,6.2,25,6.2 M25,0.2
		C11.3,0.2,0.2,11.3,0.2,25S11.3,49.8,25,49.8S49.8,38.7,49.8,25S38.7,0.2,25,0.2L25,0.2z" fill="#ffffff"/>
</g>
<g>
	<rect x="22.6" y="3.4" class="st1" width="4.8" height="43.2" fill="#ffffff"/>
</g>
<g>
	<rect x="3.4" y="22.6" transform="matrix(0.7071 -0.7071 0.7071 0.7071 -10.3553 25)" class="st1" width="43.2" height="4.8" fill="#ffffff"/>
</g>
<g>
	<rect x="3.4" y="22.6" class="st1" width="43.2" height="4.8" fill="#ffffff"/>
</g>
<g>
	<rect x="22.6" y="3.4" transform="matrix(0.7071 -0.7071 0.7071 0.7071 -10.3553 25)" class="st1" width="4.8" height="43.2" fill="#ffffff"/>
</g>
</svg>
